<?xml version="1.0" standalone="no"?>
<!DOCTYPE svg PUBLIC "-//W3C//DTD SVG 20010904//EN"
 "http://www.w3.org/TR/2001/REC-SVG-20010904/DTD/svg10.dtd">
<svg version="1.0" xmlns="http://www.w3.org/2000/svg"
 width="190.000000pt" height="190.000000pt" viewBox="0 0 190.000000 190.000000"
 preserveAspectRatio="xMidYMid meet">
<metadata>
Created by potrace 1.14, written by Peter Selinger 2001-2017
</metadata>
<g transform="translate(0.000000,190.000000) scale(0.100000,-0.100000)"
fill="#000000" stroke="none">
<path d="M396 1335 c-81 -28 -138 -95 -153 -180 -11 -59 1 -115 40 -192 l27
-52 -68 -22 c-139 -46 -222 -92 -222 -125 0 -6 8 -22 19 -35 17 -21 25 -23
117 -21 55 1 108 3 119 6 11 2 43 7 71 11 49 6 51 6 63 -22 17 -41 69 -95 115
-118 127 -65 301 31 320 177 7 54 17 69 40 66 16 -2 24 -16 38 -68 23 -83 61
-138 118 -167 63 -32 116 -38 175 -18 78 26 109 64 191 233 41 84 74 156 74
161 0 5 6 14 14 20 11 9 15 9 18 -1 4 -10 35 -3 124 26 197 64 258 103 236
151 -19 41 -69 47 -247 30 -38 -4 -78 -9 -88 -10 -13 -2 -23 6 -32 28 -41 98
-157 152 -266 124 -51 -12 -118 -73 -147 -131 l-23 -46 -27 33 c-79 95 -120
114 -207 93 -36 -8 -59 -27 -105 -85 l-34 -44 -16 34 c-55 124 -172 183 -284
144z m1333 -209 c-8 -7 -183 -66 -197 -66 -9 0 -11 7 -6 23 3 12 7 23 8 24 3
4 135 20 170 22 16 0 27 -1 25 -3z m-1376 -306 c3 -11 0 -21 -6 -21 -7 -1 -21
-3 -32 -4 -11 -2 -49 -6 -85 -9 l-65 -6 75 29 c91 35 106 37 113 11z"/>
</g>
</svg>
