<svg width="40" height="37" viewBox="0 0 40 37" fill="none" xmlns="http://www.w3.org/2000/svg">
<path d="M16.4286 35.5087L0.714287 19.7694C0.267857 19.301 0 18.7388 0 18.083C0 17.5209 0.267857 16.9588 0.714287 16.4904L16.4286 0.751022C17.2321 -0.0921593 18.6607 -0.0921593 19.4643 0.844707C20.2679 1.68789 20.2679 3.18687 19.375 4.03005L7.5 15.8346L37.8571 15.8346C39.1071 15.8346 40 16.8651 40 18.083C40 19.3947 39.1071 20.3315 37.8571 20.3315L7.5 20.3315L19.375 32.2297C20.2679 33.0729 20.2679 34.5719 19.4643 35.4151C18.6607 36.3519 17.3214 36.3519 16.4286 35.5087Z" fill="#586E4F"/>
</svg>
