<svg width="40" height="37" viewBox="0 0 40 37" fill="none" xmlns="http://www.w3.org/2000/svg">
<path d="M23.5714 0.751019L39.2857 16.4904C39.7321 16.9588 40 17.5209 40 18.1767C40 18.7388 39.7321 19.301 39.2857 19.7694L23.5714 35.5087C22.7679 36.3519 21.3393 36.3519 20.5357 35.4151C19.7321 34.5719 19.7321 33.0729 20.625 32.2297L32.5 20.4252H2.14286C0.892857 20.4252 0 19.3947 0 18.1767C0 16.8651 0.892857 15.9282 2.14286 15.9282H32.5L20.625 4.03005C19.7321 3.18687 19.7321 1.68788 20.5357 0.844706C21.3393 -0.0921603 22.6786 -0.0921603 23.5714 0.751019Z" fill="#586E4F"/>
</svg>
