<svg width="24" height="25" viewBox="0 0 24 25" fill="none" xmlns="http://www.w3.org/2000/svg">
<path d="M24 12.0722C24 12.8799 23.3654 13.4568 22.6154 13.4568H13.3846V22.6876C13.3846 23.4953 12.75 24.1299 12 24.1299C11.1923 24.1299 10.6154 23.4953 10.6154 22.6876V13.4568H1.38462C0.576923 13.4568 0 12.8799 0 12.1299C0 11.3222 0.576923 10.6876 1.38462 10.6876H10.6154V1.45681C10.6154 0.706806 11.1923 0.129883 12 0.129883C12.75 0.129883 13.3846 0.706806 13.3846 1.45681V10.6876H22.6154C23.3654 10.6876 24 11.3222 24 12.0722Z" fill="#612814"/>
</svg>
